# xmcd
#
# Track frame offsets:
#	150
#	19577
#	43604
#	58229
#	69674
#	147539
#	180092
#	208002
#	220677
#	236805
#
# Disc length: 4235 seconds
#
# Revision: 26
# Processed by: cddbd v1.5.1PL2 Copyright (c) Steve Scherf et al.
# Submitted via: EasyCDDAExtractor 9.0.0.1
#
DISCID=9210890a
DTITLE=The Doors - Box Set, Disc 2 - Live In New York
DYEAR=1997
DGENRE=Blues
TTITLE0=Roadhouse Blues
TTITLE1=Ship Of Fools
TTITLE2=Peace Frog
TTITLE3=Blue Sunday
TTITLE4=The Celebration Of The Lizard
TTITLE5=Gloria
TTITLE6=Crawling King Snake
TTITLE7=Money
TTITLE8=Poontang Blues - Build Me A Woman - Sunday Trucker
TTITLE9=The End
EXTD=YEAR: 1998
EXTT0=
EXTT1=
EXTT2=
EXTT3=
EXTT4=
EXTT5=
EXTT6=
EXTT7=
EXTT8=
EXTT9=
PLAYORDER=
